<svg width="80" height="80" viewBox="0 0 80 80" fill="none" xmlns="http://www.w3.org/2000/svg">
<g clip-path="url(#clip0_5_118)">
<path d="M0.23999 38.28C0.23999 20.28 0.23999 11.24 5.8 5.64001C11.44 0.0800175 20.44 0.0800171 38.48 0.0800171H41.68C59.68 0.0800171 68.72 0.0800175 74.32 5.64001C79.88 11.2 79.88 20.28 79.88 38.28V41.48C79.88 59.48 79.88 68.52 74.32 74.12C68.76 79.68 59.68 79.68 41.68 79.68H38.48C20.48 79.68 11.44 79.68 5.84 74.12C0.239991 68.52 0.23999 59.52 0.23999 41.48V38.28Z" fill="#FF7700"/>
<path d="M40.04 39.68C43.92 39.68 47.44 38.08 49.96 35.56C52.48 33.04 54.08 29.52 54.08 25.64C54.08 21.76 52.48 18.24 49.96 15.72C47.44 13.2 43.92 11.6 40.04 11.6C36.16 11.6 32.64 13.2 30.12 15.72C27.6 18.2 26 21.72 26 25.64C26 29.56 27.6 33.04 30.12 35.56C32.64 38.08 36.2 39.68 40.04 39.68ZM35.56 21.08C36.72 19.92 38.32 19.2 40.08 19.2C41.88 19.2 43.44 19.92 44.6 21.08C45.76 22.24 46.48 23.84 46.48 25.6C46.48 27.4 45.76 28.96 44.6 30.12C43.44 31.28 41.84 32 40.08 32C38.28 32 36.72 31.28 35.56 30.12C34.4 28.96 33.68 27.36 33.68 25.6C33.68 23.84 34.44 22.24 35.56 21.08Z" fill="white"/>
<path d="M59 45.36L54.88 39.72C54.64 39.4 54.16 39.36 53.88 39.64C50 42.96 45.2 45.12 40.04 45.12C34.88 45.12 30.12 42.96 26.2 39.64C25.92 39.4 25.44 39.44 25.2 39.72L21.08 45.36C20.88 45.64 20.92 46 21.16 46.24C24.64 49.04 28.68 50.96 32.88 51.96L24.16 67.32C23.92 67.76 24.24 68.32 24.72 68.32H33.24C33.52 68.32 33.76 68.16 33.84 67.88L39.92 54.28L46 67.88C46.08 68.12 46.32 68.32 46.6 68.32H55.12C55.64 68.32 55.92 67.8 55.68 67.32L46.96 51.96C51.16 50.96 55.2 49.12 58.68 46.24C59.2 46 59.24 45.64 59 45.36Z" fill="white"/>
</g>
<defs>
<clipPath id="clip0_5_118">
<rect width="80" height="80" fill="white"/>
</clipPath>
</defs>
</svg>
