<svg width="80" height="80" viewBox="0 0 80 80" fill="none" xmlns="http://www.w3.org/2000/svg">
<path d="M18.16 0C16.4 0.08 14.08 0.239999 13.04 0.479999C11.44 0.799999 9.92 1.28 8.72 1.92C7.2 2.64 5.92 3.6 4.8 4.72C3.6 5.92 2.64 7.2 1.92 8.72C1.28 9.92 0.800003 11.44 0.480003 13.04C0.240003 14.08 0.079999 16.4 0.079999 18.16C-1.03377e-06 18.88 0 19.84 0 20.32V59.68C0 60.16 0 61.04 0 61.84C0.08 63.6 0.240003 65.92 0.480003 66.96C0.800003 68.56 1.28 70.08 1.92 71.28C2.64 72.8 3.6 74.08 4.72 75.2C5.92 76.4 7.2 77.36 8.72 78.08C9.92 78.72 11.44 79.2 13.04 79.52C14.08 79.76 16.4 79.92 18.16 79.92C18.88 80 19.84 80 20.32 80H59.68C60.16 80 61.04 80 61.84 80C63.6 79.92 65.92 79.76 66.96 79.52C68.56 79.2 70.08 78.72 71.28 78.08C72.8 77.36 74.08 76.4 75.2 75.28C76.4 74.08 77.36 72.8 78.08 71.28C78.72 70.08 79.2 68.56 79.52 66.96C79.76 65.92 79.92 63.6 79.92 61.84C80 61.12 80 60.16 80 59.68V20.32C80 19.84 80 18.96 80 18.16C79.92 16.4 79.76 14.08 79.52 13.04C79.2 11.44 78.72 9.92 78.08 8.72C77.36 7.2 76.4 5.92 75.28 4.8C74.08 3.6 72.8 2.64 71.28 1.92C70.08 1.28 68.56 0.799999 66.96 0.479999C65.92 0.239999 63.6 0.079999 61.84 0.079999C61.12 -1.03377e-06 60.16 0 59.68 0H20.32C19.84 0 18.96 0 18.16 0Z" fill="url(#paint0_linear_2002_115)"/>
<path fill-rule="evenodd" clip-rule="evenodd" d="M53.8693 45.2647C53.1567 44.9082 49.6536 43.1849 49.0003 42.9472C48.3472 42.7096 47.8723 42.5907 47.3973 43.3038C46.9223 44.0169 45.5568 45.6213 45.141 46.0967C44.7255 46.572 44.3099 46.6316 43.5973 46.2749C42.8848 45.9185 40.5889 45.1662 37.8674 42.7394C35.7492 40.8508 34.3191 38.518 33.9034 37.8049C33.4878 37.0918 33.8592 36.7063 34.216 36.3511C34.5364 36.0321 34.9284 35.5193 35.2847 35.1033C35.6409 34.6873 35.7597 34.3902 35.9972 33.9149C36.2347 33.4395 36.116 33.0235 35.9378 32.6669C35.7597 32.3104 34.3347 28.8043 33.741 27.3781C33.1626 25.9892 32.5752 26.1771 32.1378 26.1554C31.7226 26.1347 31.2472 26.1303 30.7721 26.1303C30.2971 26.1303 29.5253 26.3086 28.872 27.0216C28.2189 27.7347 26.3782 29.4581 26.3782 32.964C26.3782 36.47 28.9315 39.8572 29.2877 40.3326C29.644 40.8081 34.3121 48.0029 41.4598 51.0882C43.1598 51.8221 44.4871 52.2603 45.5218 52.5888C47.2288 53.1308 48.7821 53.0544 50.0098 52.871C51.3788 52.6665 54.2255 51.1477 54.8193 49.4838C55.413 47.82 55.413 46.3938 55.2349 46.0967C55.0569 45.7996 54.5818 45.6213 53.8693 45.2647ZM40.8682 63.0105H40.8586C36.6055 63.0088 32.4341 61.8667 28.795 59.7078L27.9295 59.1942L18.9588 61.5467L21.3533 52.8032L20.7896 51.9068C18.4171 48.1342 17.164 43.7739 17.1658 39.2968C17.171 26.2326 27.8037 15.604 40.8777 15.604C47.2084 15.6064 53.1595 18.0743 57.6345 22.5529C62.1095 27.0316 64.5726 32.9848 64.5701 39.316C64.5648 52.3811 53.9321 63.0105 40.8682 63.0105ZM61.0404 19.1497C55.6564 13.7612 48.4964 10.7923 40.8679 10.7893C25.15 10.7893 12.3574 23.5769 12.3511 39.295C12.349 44.3194 13.6621 49.224 16.1575 53.5469L12.1119 68.3195L27.2291 64.3554C31.3943 66.6265 36.0838 67.8232 40.8566 67.8253H40.8684C56.5848 67.8253 69.3785 55.036 69.3849 39.3178C69.3878 31.7005 66.4245 24.5381 61.0404 19.1497Z" fill="white"/>
<defs>
<linearGradient id="paint0_linear_2002_115" x1="39.9999" y1="80" x2="39.9999" y2="0" gradientUnits="userSpaceOnUse">
<stop stop-color="#25CF43"/>
<stop offset="1" stop-color="#61FD7D"/>
</linearGradient>
</defs>
</svg>
